<svg xmlns="http://www.w3.org/2000/svg" xmlns:xlink="http://www.w3.org/1999/xlink" width="500" zoomAndPan="magnify" viewBox="0 0 375 374.999991" height="500" preserveAspectRatio="xMidYMid meet" version="1.0"><path fill="#16a085" d="M 16.308594 309.976562 L 78.726562 247.703125 C 79.039062 247.386719 79.410156 247.160156 79.742188 246.933594 C 85.351562 255.554688 92.054688 263.753906 99.621094 271.320312 C 107.183594 278.886719 115.394531 285.59375 124.109375 291.21875 C 123.800781 291.539062 123.566406 291.917969 123.253906 292.222656 L 60.960938 354.632812 C 48.632812 366.945312 28.609375 366.925781 16.324219 354.632812 C 4.019531 342.328125 4.011719 322.296875 16.308594 309.976562 Z M 16.308594 309.976562 " fill-opacity="1" fill-rule="nonzero"/><path fill="#1abc9c" d="M 99.621094 271.316406 L 99.621094 271.320312 C 107.183594 278.886719 115.394531 285.59375 124.109375 291.21875 C 123.800781 291.539062 123.566406 291.917969 123.253906 292.222656 L 60.960938 354.632812 C 48.632812 366.945312 28.609375 366.925781 16.324219 354.632812 Z M 99.621094 271.316406 " fill-opacity="1" fill-rule="nonzero"/><path fill="#e53415" d="M 108.519531 56.695312 C 165.222656 0 257.46875 0 314.179688 56.707031 C 370.949219 113.398438 370.957031 205.714844 314.222656 262.425781 C 257.492188 319.109375 165.226562 319.109375 108.519531 262.417969 C 51.816406 205.714844 51.820312 113.390625 108.519531 56.695312 Z M 287.496094 235.722656 C 329.476562 193.738281 329.464844 125.394531 287.480469 83.449219 C 245.496094 41.472656 177.1875 41.472656 135.21875 83.429688 C 93.265625 125.390625 93.28125 193.664062 135.21875 235.707031 C 177.195312 277.5625 245.496094 277.714844 287.496094 235.722656 Z M 287.496094 235.722656 " fill-opacity="1" fill-rule="nonzero"/><path fill="#ea4701" d="M 314.179688 56.707031 C 370.949219 113.398438 370.957031 205.714844 314.222656 262.425781 C 257.492188 319.109375 165.226562 319.109375 108.519531 262.417969 L 135.222656 235.707031 C 177.195312 277.5625 245.496094 277.714844 287.496094 235.722656 C 329.476562 193.738281 329.464844 125.394531 287.480469 83.449219 L 287.460938 83.433594 Z M 314.179688 56.707031 " fill-opacity="1" fill-rule="nonzero"/><path fill="#65a4aa" d="M 162.828125 139.96875 C 158.96875 152.425781 145.207031 169.195312 134.890625 162.945312 C 126.703125 158.113281 130.304688 138.476562 135.007812 127.019531 C 156.105469 74.921875 221.582031 67.671875 227.902344 74.8125 C 234.121094 81.839844 178.117188 90.660156 162.828125 139.96875 Z M 162.828125 139.96875 " fill-opacity="1" fill-rule="nonzero"/></svg>